<svg xmlns="http://www.w3.org/2000/svg" xmlns:svg="http://www.w3.org/2000/svg" id="master-artboard" width="964" height="300" version="1.1" viewBox="0 0 964 300" style="clip-rule:evenodd;fill-rule:evenodd;image-rendering:optimizeQuality;shape-rendering:geometricPrecision;text-rendering:geometricPrecision"><title id="title4590">Hyperledger Indy Logo</title><metadata id="metadata3568"/><rect id="ee-background" width="900" height="300" x="-14.133" y="-.006" style="fill:#fff;fill-opacity:0"/><g id="g3476" transform="matrix(0.79543424,0,0,0.79543424,-29.374918,-164.19294)" style="fill:#00528e;fill-opacity:1"><g id="g-39" style="fill:#00528e;fill-opacity:1"><g id="g-40" style="fill:#00528e;fill-opacity:1"><path id="path3480" style="fill:#00528e;fill-opacity:1" d="m 277,546 -43,25 -43,-25 0,-50 43,-25 43,25 0,50 z" class="st0"/></g></g></g><g id="g3482" transform="matrix(0.4773114,0,0,0.4773114,-22.142277,-214.49827)" style="fill:#00528e;fill-opacity:1"><g id="g-11" style="fill:#00528e;fill-opacity:1"><g id="g-12" style="fill:#00528e;fill-opacity:1"><path id="path3486" style="fill:#00528e;fill-opacity:1" d="m 277,546 -43,25 -43,-25 0,-50 43,-25 43,25 0,50 z" class="st0"/></g></g></g><g id="g3488" transform="matrix(0.31250858,0,0,0.31250858,197.9259,-14.885247)" style="fill:#00528e;fill-opacity:1"><g id="g-1" style="fill:#00528e;fill-opacity:1"><g id="g-2" style="fill:#00528e;fill-opacity:1"><path id="path3492" style="fill:#00528e;fill-opacity:1" d="m 277,546 -43,25 -43,-25 0,-50 43,-25 43,25 0,50 z" class="st0"/></g></g></g><g id="g3494" transform="matrix(0.40373871,0,0,0.40373871,118.6681,47.206187)" style="fill:#00528e;fill-opacity:1"><g id="g-15" style="fill:#00528e;fill-opacity:1"><g id="g-16" style="fill:#00528e;fill-opacity:1"><path id="path3498" style="fill:#00528e;fill-opacity:1" d="m 277,546 -43,25 -43,-25 0,-50 43,-25 43,25 0,50 z" class="st0"/></g></g></g><g id="g3500" transform="matrix(1.7972,0,0,1.7972,-306.01556,-798.51339)" style="fill:#00528e;fill-opacity:1"><g id="g-31" style="fill:#00528e;fill-opacity:1"><g id="g-32" style="fill:#00528e;fill-opacity:1"><path id="path3504" style="fill:#00528e;fill-opacity:1" d="m 277,546 -43,25 -43,-25 0,-50 43,-25 43,25 0,50 z" class="st0"/></g></g></g><g id="g3506" transform="matrix(0.94327003,0,0,0.94327003,35.370161,-283.14336)" style="fill:#00528e;fill-opacity:1"><g id="g-3" style="fill:#00528e;fill-opacity:1"><g id="g-4" style="fill:#00528e;fill-opacity:1"><path id="path3510" style="fill:#00528e;fill-opacity:1" d="m 277,546 -43,25 -43,-25 0,-50 43,-25 43,25 0,50 z" class="st0"/></g></g></g><g id="g3512" transform="matrix(0.17330407,0,0,0.17330407,246.03239,38.641745)" style="fill:#00528e;fill-opacity:1"><g id="g-25" style="fill:#00528e;fill-opacity:1"><g id="g-26" style="fill:#00528e;fill-opacity:1"><path id="path3516" style="fill:#00528e;fill-opacity:1" d="m 277,546 -43,25 -43,-25 0,-50 43,-25 43,25 0,50 z" class="st0"/></g></g></g><g id="g3518" transform="matrix(0.62891477,0,0,0.62891477,-110.12272,-108.14605)" style="fill:#00528e;fill-opacity:1"><g id="g-5" style="fill:#00528e;fill-opacity:1"><g id="g-6" style="fill:#00528e;fill-opacity:1"><path id="path3522" style="fill:#00528e;fill-opacity:1" d="m 277,546 -43,25 -43,-25 0,-50 43,-25 43,25 0,50 z" class="st0"/></g></g></g><g id="g3524" transform="matrix(0.23412183,0,0,0.23412183,0.764975,-82.9111)" style="fill:#00528e;fill-opacity:1"><g id="g-7" style="fill:#00528e;fill-opacity:1"><g id="g-8" style="fill:#00528e;fill-opacity:1"><path id="path3528" style="fill:#00528e;fill-opacity:1" d="m 277,546 -43,25 -43,-25 0,-50 43,-25 43,25 0,50 z" class="st0"/></g></g></g><g id="g3530" transform="matrix(0.08473194,0,0,0.08473194,280.53852,83.104273)" style="fill:#00528e;fill-opacity:1"><g id="g-9" style="fill:#00528e;fill-opacity:1"><g id="g-10" style="fill:#00528e;fill-opacity:1"><path id="path3534" style="fill:#00528e;fill-opacity:1" d="m 277,546 -43,25 -43,-25 0,-50 43,-25 43,25 0,50 z" class="st0"/></g></g></g><g id="g3536" transform="matrix(0.08473194,0,0,0.08473194,25.876638,7.8212873)" style="fill:#00528e;fill-opacity:1"><g id="g-13" style="fill:#00528e;fill-opacity:1"><g id="g-14" style="fill:#00528e;fill-opacity:1"><path id="path3540" style="fill:#00528e;fill-opacity:1" d="m 277,546 -43,25 -43,-25 0,-50 43,-25 43,25 0,50 z" class="st0"/></g></g></g><g id="g3542" transform="matrix(0.20680638,0,0,0.20680638,143.41198,-29.113302)" style="fill:#00528e;fill-opacity:1"><g id="g-17" style="fill:#00528e;fill-opacity:1"><g id="g-18" style="fill:#00528e;fill-opacity:1"><path id="path3546" style="fill:#00528e;fill-opacity:1" d="m 277,546 -43,25 -43,-25 0,-50 43,-25 43,25 0,50 z" class="st0"/></g></g></g><g id="g3548" transform="matrix(0.37989122,0,0,0.37989122,131.63043,-117.61278)" style="fill:#00528e;fill-opacity:1"><g id="g-19" style="fill:#00528e;fill-opacity:1"><g id="g-20" style="fill:#00528e;fill-opacity:1"><path id="path3552" style="fill:#00528e;fill-opacity:1" d="m 277,546 -43,25 -43,-25 0,-50 43,-25 43,25 0,50 z" class="st0"/></g></g></g><g id="g3554" transform="matrix(0.1165688,0,0,0.1165688,86.558337,205.88381)" style="fill:#00528e;fill-opacity:1"><g id="g-21" style="fill:#00528e;fill-opacity:1"><g id="g-22" style="fill:#00528e;fill-opacity:1"><path id="path3558" style="fill:#00528e;fill-opacity:1" d="m 277,546 -43,25 -43,-25 0,-50 43,-25 43,25 0,50 z" class="st0"/></g></g></g><flowRoot id="flowRoot4486" transform="translate(-14.132563,-0.00588023)" xml:space="preserve" style="font-style:normal;font-weight:400;font-size:40px;line-height:125%;font-family:sans-serif;letter-spacing:0;word-spacing:0;fill:#000;fill-opacity:1;stroke:none;stroke-width:1px;stroke-linecap:butt;stroke-linejoin:miter;stroke-opacity:1"><flowRegion id="flowRegion4488"><rect id="rect4490" width="450" height="60" x="350" y="40"/></flowRegion><flowPara id="flowPara4492"/></flowRoot><g id="g4510" transform="matrix(1.3210495,0,0,1.3210495,-130.81496,-73.757167)"><text id="text4494" x="355.141" y="132.319" style="font-style:normal;font-weight:400;font-size:40px;line-height:125%;font-family:sans-serif;letter-spacing:0;word-spacing:0;fill:#000;fill-opacity:1;stroke:none;stroke-width:1px;stroke-linecap:butt;stroke-linejoin:miter;stroke-opacity:1" xml:space="preserve"><tspan style="font-style:normal;font-variant:normal;font-weight:800;font-stretch:normal;font-size:63.75px;font-family:Avenir;-inkscape-font-specification:'Avenir Ultra-Bold'" id="tspan4496" x="355.141" y="132.319">HYPERLEDGER</tspan></text><flowRoot transform="translate(-12.486681,-1.5608351)" style="font-style:normal;font-weight:400;font-size:127.5px;line-height:125%;font-family:sans-serif;letter-spacing:0;word-spacing:0;fill:#939598;fill-opacity:1;stroke:none;stroke-width:1px;stroke-linecap:butt;stroke-linejoin:miter;stroke-opacity:1" id="flowRoot4498" xml:space="preserve"><flowRegion id="flowRegion4500"><rect style="font-size:127.5px;fill:#939598;fill-opacity:1" id="rect4502" width="380" height="170" x="360" y="130"/></flowRegion><flowPara style="font-style:normal;font-variant:normal;font-weight:500;font-stretch:normal;font-size:135px;font-family:Avenir;-inkscape-font-specification:'Avenir Medium';fill:#939598;fill-opacity:1" id="flowPara4504">INDY</flowPara></flowRoot></g></svg>